# xmcd
#
# Track frame offsets: 
#        150
#        16595
#        30335
#        42155
#        53777
#        63832
#        76037
#        88030
#        100650
#        110430
#        122780
#        131510
#        140355
#        154602
#        169070
#        181772
#        193862
#        205520
#        214135
#        229945
#        242335
#        251785
#        261255
#        270530
#        286577
#
# Disc length: 4028 seconds
#
# Revision: 0
# Processed by: cddbd v1.5.2PL0 Copyright (c) Steve Scherf et al.
# Submitted via: ExactAudioCopy v0.95b3
#
DISCID=430fba19
DTITLE=The Byrds  - There Is A Season - Disc 2
DYEAR=1900
DGENRE=
TTITLE0=Eight Miles High
TTITLE1=Why (Mono Single Version)
TTITLE2=5D (Fifth Dimension)
TTITLE3=Wild Mountain Thyme
TTITLE4=Mr. Spaceman
TTITLE5=I See You
TTITLE6=What's Happening !
TTITLE7=I Know My Rider
TTITLE8=So You Want To Be A Rock 'n' Roll Star
TTITLE9=Have You Seen Her Face
TTITLE10=Renaissance Fair
TTITLE11=Time Between
TTITLE12=Everybody's Been Burned
TTITLE13=My Back Pages
TTITLE14=It Happens Each Day
TTITLE15=He Was A Friend Of Mine (Previously Unissued Live Version - M
TTITLE15=ono)
TTITLE16=Lady Friend (Mono)
TTITLE17=Old John Robertson (Mono Single Version)
TTITLE18=Goin' Back
TTITLE19=Draft Morning
TTITLE20=Wasn't Born To Follow
TTITLE21=Tribal Gathering
TTITLE22=Dolphin's Smile
TTITLE23=Triad
TTITLE24=Universal Mind Decoder (Instrumental)
EXTD=
EXTT0=
EXTT1=
EXTT2=
EXTT3=
EXTT4=
EXTT5=
EXTT6=
EXTT7=
EXTT8=
EXTT9=
EXTT10=
EXTT11=
EXTT12=
EXTT13=
EXTT14=
EXTT15=
EXTT16=
EXTT17=
EXTT18=
EXTT19=
EXTT20=
EXTT21=
EXTT22=
EXTT23=
EXTT24=
PLAYORDER=
